<svg id="Layer_1" data-name="Layer 1" xmlns="http://www.w3.org/2000/svg" xmlns:xlink="http://www.w3.org/1999/xlink" viewBox="0 0 40.83 40.86"><defs><style>.cls-1,.cls-2,.cls-4{fill:#ccc;}.cls-1{clip-rule:evenodd;}.cls-2{fill-rule:evenodd;}.cls-3{clip-path:url(#clip-path);}</style><clipPath id="clip-path" transform="translate(4.38 4.47)"><path class="cls-1" d="M30.57,0.46L0.47,15s9.76,5.88,9.71,5.83S16,31.53,16,31.53,31.3,1.91,31.54,1.43A0.73,0.73,0,0,0,30.57.46ZM4.36,15L26.69,4.34,11.15,18.91ZM16,27.65s-3-5.85-3.88-7.77L27.73,5.1Z"/></clipPath></defs><title>ico-message-line-gray</title><path class="cls-2" d="M30.57,0.46L0.47,15s9.76,5.88,9.71,5.83S16,31.53,16,31.53,31.3,1.91,31.54,1.43A0.73,0.73,0,0,0,30.57.46ZM4.36,15L26.69,4.34,11.15,18.91ZM16,27.65s-3-5.85-3.88-7.77L27.73,5.1Z" transform="translate(4.38 4.47)"/><g class="cls-3"><rect class="cls-4" width="40.83" height="40.86"/></g></svg>