<svg id="Layer_1" data-name="Layer 1" xmlns="http://www.w3.org/2000/svg" xmlns:xlink="http://www.w3.org/1999/xlink" viewBox="0 0 40.02 42"><defs><style>.cls-1,.cls-2,.cls-4{fill:#24d39a;}.cls-1{clip-rule:evenodd;}.cls-2{fill-rule:evenodd;}.cls-3{clip-path:url(#clip-path);}</style><clipPath id="clip-path" transform="translate(4.01 5)"><path class="cls-1" d="M16,0L1,17.66,2.4,19.07,6,15V28a4,4,0,0,0,4,4H22a4,4,0,0,0,4-4V15l3.6,4.07L31,17.66,16,0"/></clipPath></defs><title>ico-home-bold-green</title><path class="cls-2" d="M16,0L1,17.66,2.4,19.07,6,15V28a4,4,0,0,0,4,4H22a4,4,0,0,0,4-4V15l3.6,4.07L31,17.66,16,0" transform="translate(4.01 5)"/><g class="cls-3"><rect class="cls-4" width="40.02" height="42"/></g></svg>