<svg id="Layer_1" data-name="Layer 1" xmlns="http://www.w3.org/2000/svg" xmlns:xlink="http://www.w3.org/1999/xlink" viewBox="0 0 42.29 42.22"><defs><style>.cls-1,.cls-2,.cls-4{fill:#ccc;}.cls-1{clip-rule:evenodd;}.cls-2{fill-rule:evenodd;}.cls-3{clip-path:url(#clip-path);}</style><clipPath id="clip-path" transform="translate(5.15 5.08)"><path class="cls-1" d="M31,3.64l-3-3a2.1,2.1,0,0,0-3,0L20.68,6.59a2.22,2.22,0,0,0,0,3l1.81,1.81a51,51,0,0,1-4.78,5.58,59.48,59.48,0,0,1-6.39,5.44L9.57,20.62a2.23,2.23,0,0,0-3,0L0.68,25.06a1.94,1.94,0,0,0,0,3l3,3c1.64,1.63,3.76,1.11,5.92,0a63.2,63.2,0,0,0,12.14-9.24A69.8,69.8,0,0,0,31,9.55C31.89,7.22,32.68,5.27,31,3.64ZM29.57,8.07a62.34,62.34,0,0,1-8.89,11.82c-3.75,4.06-12.59,9.6-12.59,9.6-0.68.36-2.58,0.38-3.1-.13L3.11,27.47a1.41,1.41,0,0,1,0-1.88l3.77-2.82a1.42,1.42,0,0,1,1.88,0l2.32,2.32c0.55-.38,9.27-6.1,14.13-14L22.83,8.74a1.41,1.41,0,0,1,0-1.88L25.66,3.1a1.2,1.2,0,0,1,1.88,0L29.43,5C30.17,5.67,30,7.29,29.57,8.07Z"/></clipPath></defs><title>ico-phone-line-gray</title><path class="cls-2" d="M31,3.64l-3-3a2.1,2.1,0,0,0-3,0L20.68,6.59a2.22,2.22,0,0,0,0,3l1.81,1.81a51,51,0,0,1-4.78,5.58,59.48,59.48,0,0,1-6.39,5.44L9.57,20.62a2.23,2.23,0,0,0-3,0L0.68,25.06a1.94,1.94,0,0,0,0,3l3,3c1.64,1.63,3.76,1.11,5.92,0a63.2,63.2,0,0,0,12.14-9.24A69.8,69.8,0,0,0,31,9.55C31.89,7.22,32.68,5.27,31,3.64ZM29.57,8.07a62.34,62.34,0,0,1-8.89,11.82c-3.75,4.06-12.59,9.6-12.59,9.6-0.68.36-2.58,0.38-3.1-.13L3.11,27.47a1.41,1.41,0,0,1,0-1.88l3.77-2.82a1.42,1.42,0,0,1,1.88,0l2.32,2.32c0.55-.38,9.27-6.1,14.13-14L22.83,8.74a1.41,1.41,0,0,1,0-1.88L25.66,3.1a1.2,1.2,0,0,1,1.88,0L29.43,5C30.17,5.67,30,7.29,29.57,8.07Z" transform="translate(5.15 5.08)"/><g class="cls-3"><rect class="cls-4" width="42.29" height="42.22"/></g></svg>