<svg id="Layer_1" data-name="Layer 1" xmlns="http://www.w3.org/2000/svg" xmlns:xlink="http://www.w3.org/1999/xlink" viewBox="0 0 41.09 41.02"><defs><style>.cls-1,.cls-2,.cls-4{fill:#24d39a;}.cls-1{clip-rule:evenodd;}.cls-2{fill-rule:evenodd;}.cls-3{clip-path:url(#clip-path);}</style><clipPath id="clip-path" transform="translate(4.54 4.51)"><path class="cls-1" d="M30.62,4L27.74,1.08a2,2,0,0,0-2.88,0L20.54,6.82a2.16,2.16,0,0,0,0,2.87l1.76,1.76a49.58,49.58,0,0,1-4.64,5.42,57.78,57.78,0,0,1-6.21,5.28l-1.7-1.7a2.17,2.17,0,0,0-2.88,0L1.12,24.76a1.89,1.89,0,0,0,0,2.87L4,30.5c1.59,1.59,3.66,1.08,5.76,0a61.4,61.4,0,0,0,11.79-9A67.81,67.81,0,0,0,30.62,9.69c0.83-2.26,1.59-4.16,0-5.74"/></clipPath></defs><title>ico-phone-bold-green</title><path class="cls-2" d="M30.62,4L27.74,1.08a2,2,0,0,0-2.88,0L20.54,6.82a2.16,2.16,0,0,0,0,2.87l1.76,1.76a49.58,49.58,0,0,1-4.64,5.42,57.78,57.78,0,0,1-6.21,5.28l-1.7-1.7a2.17,2.17,0,0,0-2.88,0L1.12,24.76a1.89,1.89,0,0,0,0,2.87L4,30.5c1.59,1.59,3.66,1.08,5.76,0a61.4,61.4,0,0,0,11.79-9A67.81,67.81,0,0,0,30.62,9.69c0.83-2.26,1.59-4.16,0-5.74" transform="translate(4.54 4.51)"/><g class="cls-3"><rect class="cls-4" width="41.09" height="41.02"/></g></svg>