<svg id="Capa_1" data-name="Capa 1" xmlns="http://www.w3.org/2000/svg" viewBox="0 0 510.72 248.13"><defs><style>.cls-1{fill:#5b5b5f;}.cls-2{fill:#3e9c81;}</style></defs><title>toBusiness-logo</title><path class="cls-1" d="M215.39,4.33L286.94,128.4,214.51,252.47H71.39L0.28,128.4,71.39,4.33h144Zm-185.48,124L87,226.52H200.24l57.07-98.18L199.8,30.28H87Z" transform="translate(-0.28 -4.33)"/><polygon class="cls-2" points="244.84 0.33 275.2 0.33 323.89 85.2 431.88 85.2 480.37 0.33 510.72 0.33 446.14 111.36 309 111.36 244.84 0.33"/><polygon class="cls-2" points="510.11 247.67 479.76 247.67 431.06 162.8 323.07 162.8 274.59 247.67 244.23 247.67 308.81 136.64 445.95 136.64 510.11 247.67"/></svg>