<svg id="Layer_1" data-name="Layer 1" xmlns="http://www.w3.org/2000/svg" xmlns:xlink="http://www.w3.org/1999/xlink" viewBox="0 0 37.65 37.65"><defs><style>.cls-1,.cls-2,.cls-4{fill:#24d39a;}.cls-1{clip-rule:evenodd;}.cls-2{fill-rule:evenodd;}.cls-3{clip-path:url(#clip-path);}</style><clipPath id="clip-path" transform="translate(2.82 2.82)"><path class="cls-1" d="M6,8.47H26a2.51,2.51,0,1,0,0-5H6A2.51,2.51,0,0,0,6,8.47Zm20.08,5H6a2.51,2.51,0,0,0,0,5H26A2.51,2.51,0,0,0,26,13.49Zm0,10H6a2.51,2.51,0,1,0,0,5H26A2.51,2.51,0,1,0,26,23.53Z"/></clipPath></defs><title>ico.menu.bold.green</title><path class="cls-2" d="M6,8.47H26a2.51,2.51,0,1,0,0-5H6A2.51,2.51,0,0,0,6,8.47Zm20.08,5H6a2.51,2.51,0,0,0,0,5H26A2.51,2.51,0,0,0,26,13.49Zm0,10H6a2.51,2.51,0,1,0,0,5H26A2.51,2.51,0,1,0,26,23.53Z" transform="translate(2.82 2.82)"/><g class="cls-3"><rect class="cls-4" width="37.65" height="37.65"/></g></svg>