<svg id="Layer_1" data-name="Layer 1" xmlns="http://www.w3.org/2000/svg" xmlns:xlink="http://www.w3.org/1999/xlink" viewBox="0 0 40.02 39.97"><defs><style>.cls-1,.cls-2,.cls-4{fill:#ccc;}.cls-1{clip-rule:evenodd;}.cls-2{fill-rule:evenodd;}.cls-3{clip-path:url(#clip-path);}</style><clipPath id="clip-path" transform="translate(4 4)"><path class="cls-1" d="M30.16,6.37c-0.51.57-1.35,1.29-2.55,2.39a3,3,0,0,1-4.35,0,3,3,0,0,1,0-4.35c1.17-1.17,2.44-2.56,2.42-2.57a9.22,9.22,0,0,0-12.62,11.3L2.2,24A4.1,4.1,0,0,0,8,29.77L18.86,18.94A9.19,9.19,0,0,0,30.16,6.37Zm-3.28,8.91a7.18,7.18,0,0,1-8.48,1.21L6.56,28.32a2.05,2.05,0,0,1-2.9-2.9L15.51,13.6A7.08,7.08,0,0,1,21.7,3.09a5.11,5.11,0,0,0,7.24,7.22A7.07,7.07,0,0,1,26.89,15.28Z"/></clipPath></defs><title>ico-help2-line-gray</title><path class="cls-2" d="M30.16,6.37c-0.51.57-1.35,1.29-2.55,2.39a3,3,0,0,1-4.35,0,3,3,0,0,1,0-4.35c1.17-1.17,2.44-2.56,2.42-2.57a9.22,9.22,0,0,0-12.62,11.3L2.2,24A4.1,4.1,0,0,0,8,29.77L18.86,18.94A9.19,9.19,0,0,0,30.16,6.37Zm-3.28,8.91a7.18,7.18,0,0,1-8.48,1.21L6.56,28.32a2.05,2.05,0,0,1-2.9-2.9L15.51,13.6A7.08,7.08,0,0,1,21.7,3.09a5.11,5.11,0,0,0,7.24,7.22A7.07,7.07,0,0,1,26.89,15.28Z" transform="translate(4 4)"/><g class="cls-3"><rect class="cls-4" width="40.02" height="39.97"/></g></svg>