<svg id="Layer_1" data-name="Layer 1" xmlns="http://www.w3.org/2000/svg" xmlns:xlink="http://www.w3.org/1999/xlink" viewBox="0 0 40.02 39.97"><defs><style>.cls-1,.cls-2,.cls-4{fill:#24d39a;}.cls-1{clip-rule:evenodd;}.cls-2{fill-rule:evenodd;}.cls-3{clip-path:url(#clip-path);}</style><clipPath id="clip-path" transform="translate(4.01 3.99)"><path class="cls-1" d="M30.15,6.39C29.65,7,28.81,7.68,27.6,8.78a3,3,0,0,1-4.35,0,3,3,0,0,1,0-4.35c1.17-1.17,2.44-2.56,2.42-2.57A9.22,9.22,0,0,0,13,13.16L2.19,24A4.1,4.1,0,0,0,8,29.79L18.85,19A9.19,9.19,0,0,0,30.15,6.39"/></clipPath></defs><title>ico-help-bold-green</title><path class="cls-2" d="M30.15,6.39C29.65,7,28.81,7.68,27.6,8.78a3,3,0,0,1-4.35,0,3,3,0,0,1,0-4.35c1.17-1.17,2.44-2.56,2.42-2.57A9.22,9.22,0,0,0,13,13.16L2.19,24A4.1,4.1,0,0,0,8,29.79L18.85,19A9.19,9.19,0,0,0,30.15,6.39" transform="translate(4.01 3.99)"/><g class="cls-3"><rect class="cls-4" width="40.02" height="39.97"/></g></svg>